<svg xmlns="http://www.w3.org/2000/svg" viewBox="0 0 214.062 180.39"><defs><style>.cls-1{fill:none;stroke:#0a122d;stroke-miterlimit:10;stroke-width:3.026px;fill-rule:evenodd;}</style></defs><title>camera</title><g id="レイヤー_3" data-name="レイヤー 3"><g id="laptop"><g id="camera"><path class="cls-1" d="M157.065,76.666V47.876a9.506,9.506,0,0,0-8.3-9.434h-.81l-1.147-5.694a4.32,4.32,0,0,0-4.059-3.577h-25.7a4.511,4.511,0,0,0-4.229,3.577l-1.142,5.694h-2.433L103.23,16.811a5.437,5.437,0,0,0-5.366-4.231l-25.708.325a5.526,5.526,0,0,0-5.531,4.066l-6.34,21.471H19.949a9.371,9.371,0,0,0-8.3,9.434v74.5a9.128,9.128,0,0,0,9.11,9.268h99.851"/><path class="cls-1" d="M71.614,114.708a34.076,34.076,0,0,0,44.3-18.931,33.019,33.019,0,0,0,0-25.354A34.141,34.141,0,0,0,96.968,51.492,22.842,22.842,0,0,0,90.891,49.8a32.8,32.8,0,0,0-19.277,1.691A34.058,34.058,0,0,0,52.687,95.777a33.625,33.625,0,0,0,18.927,18.931ZM52.687,95.777m0-25.354M71.614,51.492m25.354,0,18.944,18.931,0,25.354M96.968,114.708"/><path class="cls-1" d="M143.007,144.4l55.506-25.339c2.957-2.368,2.529-6.865-.427-9.233L143.007,84.485A5.914,5.914,0,0,0,133.4,89.1v50.687A5.914,5.914,0,0,0,143.007,144.4Z"/></g></g></g></svg>