<svg xmlns="http://www.w3.org/2000/svg" viewBox="0 0 140.126 44.859"><defs><style>.cls-1{fill:#fff;}</style></defs><title>アートボード 2</title><g id="レイヤー_4" data-name="レイヤー 4"><path class="cls-1" d="M0,.589H4.388V18.925h13.49V.589h4.388V44.27H17.878V22.855H4.388V44.27H0Z"/><path class="cls-1" d="M44.133.589V32.351c0,4.322.852,8.382,6.287,8.382s6.353-4.125,6.353-8.382V.589H61.16V33.661c0,6.811-4.257,11.2-10.74,11.2-6.614,0-10.675-4.519-10.675-11V.589Z"/><path class="cls-1" d="M80.342.589h21.283v3.93H84.73V18.925H98.678v3.93H84.73V40.34h16.895v3.93H80.342Z"/><path class="cls-1" d="M135.28,10.543c-.72-3.209-2.292-6.418-6.024-6.418-4.126,0-5.764,3.34-5.764,7.008,0,3.536.721,4.65,7.6,8.775,5.37,3.209,9.037,5.894,9.037,12.639,0,6.876-3.667,12.312-11,12.312-7.727,0-10.543-5.108-11.2-12.05l4.388-.589c.589,4.846,1.637,8.513,6.942,8.513,3.8,0,6.483-2.554,6.483-7.793,0-5.763-3.733-7.728-8.252-10.347-5.042-2.947-8.383-5.042-8.383-11.46C119.1,5.239,123.034,0,129.256,0c6.155,0,9.168,4.387,10.281,9.888Z"/></g></svg>