<svg id="レイヤー_1" data-name="レイヤー 1" xmlns="http://www.w3.org/2000/svg" viewBox="0 0 1095.021 250.056"><defs><style>.cls-1,.cls-2,.cls-3,.cls-4,.cls-5{fill:none;stroke:#0a122d;}.cls-1,.cls-3{stroke-linecap:round;}.cls-1{stroke-linejoin:round;}.cls-1,.cls-2,.cls-3,.cls-4{stroke-width:5.558px;}.cls-2,.cls-3,.cls-4,.cls-5{stroke-miterlimit:10;}.cls-4{fill-rule:evenodd;}.cls-5{stroke-width:5.495px;}</style></defs><title>visual</title><g id="laptop"><path class="cls-1" d="M122.143,191.15h32.328s.873,8.632,3.81,24.319c5.159,27.553,23.537,27.553,23.537,27.553H93.475a34.4,34.4,0,0,0,25.471-27.553C122.653,196.242,122.143,191.15,122.143,191.15Z"/><path class="cls-2" d="M198.428,191.15H19.832A17.1,17.1,0,0,1,2.779,174.1V24.088A17.1,17.1,0,0,1,19.832,7.035H255.921a17.053,17.053,0,0,1,17.053,17.053v75"/><rect class="cls-1" x="217.255" y="117.835" width="68.114" height="123" rx="17.053"/></g><line class="cls-3" x1="465.48" y1="76.863" x2="561.81" y2="173.193"/><line class="cls-3" x1="561.81" y1="76.863" x2="465.48" y2="173.193"/><g id="camera"><path class="cls-4" d="M1012.421,120.472V67.6a17.458,17.458,0,0,0-15.236-17.327H995.7l-2.106-10.456a7.934,7.934,0,0,0-7.456-6.569h-47.2c-3.871,0-6.867,2.988-7.765,6.569l-2.1,10.456H924.6L913.554,10.547A9.986,9.986,0,0,0,903.7,2.779l-47.212.6c-4.476-.295-8.656,2.69-10.158,7.467L834.685,50.273H760.607A17.21,17.21,0,0,0,745.371,67.6V204.416A16.765,16.765,0,0,0,762.1,221.437H945.479"/><circle class="cls-5" cx="878.024" cy="132.049" r="61.523"/><path class="cls-4" d="M986.6,244.874l101.937-46.536c5.43-4.348,4.644-12.608-.785-16.956L986.605,134.831a10.862,10.862,0,0,0-17.652,8.477V236.4A10.862,10.862,0,0,0,986.6,244.874Z"/></g></svg>